<svg xmlns="http://www.w3.org/2000/svg" viewBox="0 0 16 14" width="16" height="14">
	<defs>
		<linearGradient id="grd1" gradientUnits="userSpaceOnUse"  x1="8.298" y1="13.268" x2="8.298" y2="0.919">
			<stop offset="0" stop-color="#5d8e26"  />
			<stop offset="1" stop-color="#67a623"  />
		</linearGradient>
	</defs>
	<style>
		tspan { white-space:pre }
		.shp0 { fill: url(#grd1) } 
	</style>
	<path id="home" class="shp0" d="M8 3.62L2.3 8.42C2.3 8.43 2.3 8.44 2.29 8.46C2.29 8.47 2.29 8.48 2.29 8.49L2.29 13.35C2.29 13.53 2.35 13.68 2.48 13.8C2.6 13.93 2.75 14 2.92 14L6.73 14L6.73 10.11L9.27 10.11L9.27 14L13.08 14C13.25 14 13.4 13.93 13.52 13.81C13.65 13.68 13.71 13.53 13.71 13.35L13.71 8.49C13.71 8.46 13.71 8.44 13.7 8.42L8 3.62ZM8 3.62M15.88 7.33L13.71 5.49L13.71 1.35C13.71 1.26 13.68 1.18 13.62 1.12C13.56 1.06 13.49 1.03 13.39 1.03L11.49 1.03C11.4 1.03 11.32 1.06 11.26 1.12C11.2 1.18 11.17 1.26 11.17 1.35L11.17 3.33L8.75 1.26C8.54 1.09 8.29 1 8 1C7.71 1 7.46 1.09 7.25 1.26L0.12 7.33C0.05 7.38 0.01 7.46 0.01 7.55C0 7.64 0.02 7.72 0.08 7.79L0.69 8.54C0.74 8.6 0.81 8.63 0.9 8.65C0.98 8.66 1.06 8.63 1.14 8.58L8 2.73L14.86 8.58C14.92 8.63 14.98 8.65 15.07 8.65L15.1 8.65C15.19 8.63 15.26 8.6 15.31 8.54L15.92 7.79C15.98 7.72 16 7.64 15.99 7.55C15.99 7.46 15.95 7.38 15.88 7.33L15.88 7.33ZM15.88 7.33" />
</svg>