<svg xmlns="http://www.w3.org/2000/svg" viewBox="0 0 15 15" width="15" height="15">
	<defs>
		<linearGradient id="grd1" gradientUnits="userSpaceOnUse"  x1="7.737" y1="13.276" x2="7.737" y2="0.91">
			<stop offset="0" stop-color="#5d8e26"  />
			<stop offset="1" stop-color="#67a623"  />
		</linearGradient>
	</defs>
	<style>
		tspan { white-space:pre }
		.shp0 { fill: url(#grd1) } 
	</style>
	<path id="tel" class="shp0" d="M11.93 9.13C11.46 8.67 10.88 8.67 10.41 9.13C10.05 9.49 9.7 9.84 9.34 10.2C9.25 10.3 9.17 10.32 9.05 10.25C8.82 10.13 8.57 10.03 8.35 9.89C7.32 9.24 6.45 8.4 5.69 7.46C5.3 6.99 4.97 6.49 4.73 5.93C4.68 5.82 4.69 5.74 4.78 5.65C5.14 5.3 5.49 4.95 5.84 4.6C6.33 4.1 6.33 3.53 5.84 3.03C5.56 2.75 5.28 2.48 5 2.2C4.71 1.91 4.43 1.62 4.14 1.33C3.67 0.87 3.08 0.87 2.61 1.34C2.25 1.69 1.91 2.05 1.54 2.4C1.2 2.72 1.03 3.11 0.99 3.57C0.94 4.32 1.12 5.02 1.38 5.71C1.91 7.13 2.71 8.39 3.68 9.55C5 11.11 6.57 12.35 8.41 13.24C9.23 13.64 10.09 13.95 11.02 14C11.66 14.04 12.22 13.88 12.67 13.38C12.97 13.03 13.32 12.72 13.64 12.4C14.12 11.91 14.13 11.32 13.65 10.84C13.08 10.27 12.51 9.7 11.93 9.13L11.93 9.13ZM11.93 9.13" />
</svg>