<svg xmlns="http://www.w3.org/2000/svg" viewBox="0 0 26.13 26.13">
    <defs>
        <linearGradient id="gradient" x1="0%" y1="0%" x2="0%" y2="100%">
            <stop offset="0%" style="stop-color:rgb(249,228,0);stop-opacity:1"/>
            <stop offset="95%" style="stop-color:rgb(237,194,0);stop-opacity:1"/>
        </linearGradient>
    </defs>
    <g fill="url(#gradient)">
        <path d="M13.07,0a13.07,13.07,0,1,0,0,26.13.81.81,0,0,0,0-1.61A11.46,11.46,0,1,1,24.52,13.07a7.4,7.4,0,0,1-3.42,6.36,4.94,4.94,0,0,1-2.36.61A3.8,3.8,0,0,0,20,18.82a1.81,1.81,0,0,0,.19-.29,12.41,12.41,0,0,0,.44-2c.2-.86-3.72-2.52-4.06-1.46A9.72,9.72,0,0,1,16,17c-.22.29-.76.15-1.1-.14C14,16.13,13,15,12.15,14.13l-.07-.08L12,14h0c-.88-.87-2-1.87-2.76-2.77-.29-.33-.43-.87-.14-1.1a10.61,10.61,0,0,1,2-.55c1.06-.34-.6-4.27-1.45-4.07a12.3,12.3,0,0,0-2,.44,2.75,2.75,0,0,0-.28.19C5.08,7.54,4.79,11,7,13.56c.83,1,1.7,1.93,2.59,2.86h0l.07.07.07.08h0A24.59,24.59,0,0,0,13.53,20c3.77,2.51,6.65,1.81,8.35.87,2.94-1.61,4.25-5.07,4.25-7.77A13.08,13.08,0,0,0,13.07,0Z"/>
    </g>
</svg>