<svg xmlns="http://www.w3.org/2000/svg" viewBox="0 0 48 48">
    <defs>
        <linearGradient id="gradient" x1="0%" y1="0%" x2="0%" y2="100%">
            <stop offset="0%" style="stop-color:#6BA22F;stop-opacity:1" />
            <stop offset="95%" style="stop-color:#59832B;stop-opacity:1" />
        </linearGradient>
    </defs>
    <g fill="url(#gradient)">
        <g id="Слой_1-2" data-name="Слой 1">
            <path d="M15.68,17l-.2.07,2.76.58a35.05,35.05,0,0,0,7.16.71c1.29,0,2.56-.07,3.79-.19a34.94,34.94,0,0,0,5.79-1l.22-.05h0C40.63,15.61,44,12.91,44,10.4c0-3.54-6.88-7.2-18.4-7.2S7.2,6.86,7.2,10.4c0,2.46,3.23,5.1,8.48,6.64Zm7.09-3.52a2.82,2.82,0,0,1-2.2-2.16l-.09-.54-.54-.12a.76.76,0,0,1-.26-.09l.11-.37a1.06,1.06,0,0,1,.53-.29l.36-.11.16-.34a3.06,3.06,0,0,1,.64-.95c.13-.12.22-.21.31-.28a1.73,1.73,0,0,0,.51-.7,8.17,8.17,0,0,0,2.75.31h.35c3.41,0,4.24.93,4.57,1.63l.16.33.35.1a1.08,1.08,0,0,1,.53.29l.12.38a.84.84,0,0,1-.27.09l-.54.12-.09.54A2.81,2.81,0,0,1,28,13.52l-.63.2.18,1.48a1.48,1.48,0,0,0,1,1.19l.58.22-.58,0c-1,.07-1.95.12-3,.12-1.39,0-2.7-.07-3.93-.19l.53-.19a1.48,1.48,0,0,0,1-1.19l.17-1.48ZM25.6,4.8c11.19,0,16.8,3.59,16.8,5.6,0,1.65-3.45,4.48-9.9,5.74l-3.34-1.25v-.08a4.21,4.21,0,0,0,2.55-2.7,1.75,1.75,0,0,0,.85-.72,1.42,1.42,0,0,0,.14-1.14l-.15-.5a2.11,2.11,0,0,0-1.28-1.23c-1.19-2-3.89-2.25-5.86-2.25H25A6.15,6.15,0,0,1,22.71,6a1.75,1.75,0,0,1-.5-.23,1,1,0,0,0-1-.07L20.69,6v.5a3.81,3.81,0,0,0,0,.54,0,0,0,0,1,0,0l0,0c-.09.08-.21.19-.35.34a4.64,4.64,0,0,0-.82,1.1,2.11,2.11,0,0,0-1.26,1.22l-.15.5a1.38,1.38,0,0,0,.13,1.14,1.84,1.84,0,0,0,.85.72,4.21,4.21,0,0,0,2.55,2.7v.08l-3.29,1.18C12.13,14.79,8.8,12,8.8,10.4c0-2,5.61-5.6,16.8-5.6Z"/>
            <path d="M43.2,23.72v-.2c2.52-1.78,4-4,4-6.36V10.4C47.2,4.47,37.91,0,25.6,0S4,4.47,4,10.4v1.82C1.39,14,0,16.09,0,18.4v6.76c0,2.64,1.79,5,4.8,6.89v5.11C4.8,43.24,14.29,48,26.4,48S48,43.24,48,37.16V30.4c0-2.55-1.67-4.85-4.8-6.68Zm3.2,6.68c0,5.12-9.35,9.6-20,9.6-.46,0-.92,0-1.37,0h-.41l-1.18-.08-.76-.06-.33,0c-6.58-.71-12.18-3.08-14.63-6.08l-.09-.12a.76.76,0,0,1-.11-.14,28.5,28.5,0,0,0,3.66,1.26c3.55,2.34,9.08,3.67,15.22,3.67,10.84,0,18.4-4.2,18.4-8a4.28,4.28,0,0,0-2-3.22,1.21,1.21,0,0,0,0-.18,1.83,1.83,0,0,0,.08-.25c0-.09.05-.19.08-.29a2.21,2.21,0,0,0,.05-.25c0-.1,0-.2,0-.3a2.17,2.17,0,0,0,0-.25v-.08c1.66,1.12,3.22,2.73,3.22,4.82ZM29.7,41.47h.08c.45,0,.91-.08,1.36-.14l.34,0,1.32-.19v4.79c-1,.17-2.1.3-3.2.38V41.48Zm4.7-.66.13,0c.43-.09.86-.18,1.27-.29l.16,0,.84-.22V45q-1.15.34-2.4.6Zm4-1.1.13-.05.18-.06,1-.37.27-.12,0,0v4.77c-.51.23-1,.44-1.6.63V39.71Zm3.2-1.36.4-.22.23-.12q.47-.25.9-.54l.07,0v4.66a16.23,16.23,0,0,1-1.6,1V38.35Zm-32-.92c.5.32,1,.62,1.6.91v4.75a16.23,16.23,0,0,1-1.6-1Zm-4.8-12,.07,0q.43.29.9.54l.23.12.4.22v4H5.25a5.09,5.09,0,0,1-.45-.31Zm3.52,1.79,1,.38.18.06.13.05v4.78c-.56-.2-1.09-.4-1.6-.63V27.09l.05,0,.27.11Zm3.87,1.26c.42.11.84.2,1.27.29l.14,0V33.6l-.14,0c-.43-.09-.85-.19-1.27-.3l-1-.27V28.21l.83.23.16,0Zm4.67.84c.45.06.91.11,1.36.14h.18v4.78c-.55,0-1.1-.09-1.64-.15L16,34l-.78-.13V29.1l1.32.19.34,0Zm4.74.28c.54,0,1.07,0,1.6,0v4.81h-.05c-.51,0-1,0-1.55,0s-1.07,0-1.6,0V29.57h.11c.49,0,1,0,1.49,0Zm-16-15,0,0c.18.22.37.44.57.65l.14.14c.18.19.37.37.57.55l.14.12.14.12v4.46a5.27,5.27,0,0,1-1.6-3.56Zm3.2,2.8.07,0q.44.29.9.54l.23.12.4.22v4.74a15.13,15.13,0,0,1-1.6-1ZM12,19.09l.05,0,.27.11,1,.38.18.06.13.05v4.78c-.56-.2-1.09-.4-1.6-.63Zm3.2,1.12.83.23.16,0c.42.11.84.2,1.27.29l.14,0V25.6c-.83-.18-1.63-.37-2.4-.6Zm4,.89q.64.11,1.32.18l.34,0c.45.06.91.11,1.36.14h.18v4.79c-1.1-.08-2.17-.21-3.2-.38Zm6.4.5c.5,0,1,0,1.49,0h.11v4.78c-.53,0-1.06,0-1.6,0s-1.07,0-1.6,0v-4.8h.1q.75,0,1.5,0ZM29,21.46c.45,0,.91-.08,1.36-.14l.34,0L32,21.1v4.78l-.9.15-.48.06c-.6.07-1.21.13-1.82.18V21.48H29Zm6-1,.17,0,.83-.23V25c-.1,0-.21.06-.31.09h0l-.55.15c-.44.11-.88.22-1.34.31l-.2.05V20.81l.13,0c.43-.09.86-.18,1.27-.29Zm2.91-.88,1-.37.27-.12.05,0v4.77c-.51.23-1,.44-1.6.63V19.71l.13-.05.18-.06ZM41.43,18c.31-.18.61-.35.9-.54l.07,0v4.66a16.23,16.23,0,0,1-1.6,1V18.35l.4-.22.23-.12ZM19.62,36H20c.52,0,1.05,0,1.58,0h1.11l.36,0h.74l.43,0,.65,0,.47,0,.6-.05.46-.06a5.7,5.7,0,0,0,.58-.06l.46-.06.56-.08.46-.08.54-.09.46-.08.51-.1.45-.1.5-.11.44-.11.49-.13.42-.11.48-.14.41-.12.46-.15.4-.14.44-.15.38-.15.43-.16.37-.16.4-.18.36-.16.38-.19.35-.17.36-.19c.12-.06.22-.13.33-.18l.35-.21L38.5,32l.32-.21.29-.2.32-.21.26-.21.29-.23a1.64,1.64,0,0,0,.25-.21l.27-.23a2.39,2.39,0,0,0,.23-.22L41,30l.21-.22.22-.25.19-.23c.07-.09.14-.17.2-.26l.17-.24.13-.18a2.61,2.61,0,0,1,1.1,1.76c0,2.16-5.93,6.37-16.8,6.37a34.66,34.66,0,0,1-8.14-.89l1.36.07Zm14-3.46V27.68l.15-.06.88-.32c.19-.07.38-.16.57-.25v4.81c-.51.23-1,.44-1.6.63Zm-3.37-3.85c.33-.07.67-.14,1-.23l.77-.23V33c-.77.23-1.57.42-2.4.6V28.79l.63-.15Zm6.57,2.45V26.48c.55-.17,1.08-.35,1.6-.53v4.14a16.23,16.23,0,0,1-1.6,1ZM25.59,29.41l.78-.1,1.16-.15.47-.08v4.81l-.2,0-.73.1-.56.08c-.42,0-.83.09-1.26.12l-.42,0h0v-4.8c.26,0,.53,0,.79-.06Zm16-4.25a4.46,4.46,0,0,1-.39,1.78l-.08.15a6.4,6.4,0,0,1-1,1.43l-.14.17,0,0V25.3c.56-.25,1.09-.51,1.6-.79ZM12.8,39.09c.51.22,1,.42,1.6.61v4.79c-.56-.19-1.09-.4-1.6-.63ZM16,40.21q1.16.33,2.4.6V45.6q-1.24-.26-2.4-.6Zm4,.89.38,0,.58.08.91.12.92.09.41,0v4.79c-1.1-.08-2.16-.21-3.2-.37ZM45.6,14.63v2.53A5.27,5.27,0,0,1,44,20.72V16.26l.14-.12.14-.12.57-.54.14-.15c.2-.21.39-.43.57-.65l0,0Zm-20-13c11.22,0,20,3.87,20,8.8,0,5.12-9.35,9.6-20,9.6s-20-4.48-20-9.6c0-4.93,8.79-8.8,20-8.8ZM4,14.19v3a5.07,5.07,0,0,0,0,.55,1.1,1.1,0,0,0,0,.18c0,.12,0,.24,0,.36l.06.22c0,.1,0,.21.07.32a2,2,0,0,0,.08.22c0,.1.06.2.1.3s.07.15.1.23.08.19.13.29l.11.23c0,.09.1.18.16.27s.09.15.14.23a2.4,2.4,0,0,0,.18.26,1.88,1.88,0,0,0,.16.23c.06.09.13.17.2.26l.18.22c.07.08.14.17.22.25l.2.22.25.24.22.21.27.24.24.2.29.23.25.19.32.23.27.18.35.23.27.17.39.23.27.15.5.27.19.09.72.35.26.11.5.22.32.12.46.19.36.13.47.16.37.13.47.14.4.12.48.14.41.11.49.12.43.1.5.12.43.09.53.1.44.08.54.09.44.07.56.08.45.05.58.07.45.05.6.05.44,0,.64,0,.43,0h.09c-.64,0-1.28.05-1.93.05-10.66,0-20-4.48-20-9.6A5.62,5.62,0,0,1,4,14.19Zm-2.4,11V22.63l0,.05c.18.22.37.44.57.65l.14.14a7.27,7.27,0,0,0,.57.54l.14.13.14.12v4.46a5.27,5.27,0,0,1-1.6-3.56Zm4.8,12V34.63A11.62,11.62,0,0,0,8,36.25v4.47a5.27,5.27,0,0,1-1.6-3.56Zm18.4,9.21v-4.8h.11c.5,0,1,0,1.49,0s1,0,1.49,0H28v4.8c-.53,0-1.06,0-1.6,0s-1.07,0-1.6,0ZM46.4,34.63v2.53a5.27,5.27,0,0,1-1.6,3.56V36.26l.14-.12.14-.12c.2-.18.38-.36.56-.54l.15-.15c.2-.21.39-.43.57-.65l0,0Z"/>
        </g>
    </g>
</svg>