<svg xmlns="http://www.w3.org/2000/svg" xmlns:xlink="http://www.w3.org/1999/xlink" viewBox="0 0 47.2 48">
    <defs>
        <style>.cls-1{fill:none;}.cls-2{clip-path:url(#clip-path);}</style>
        <clipPath id="clip-path" transform="translate(0 0)">
            <rect class="cls-1" width="48" height="48.96"/>
        </clipPath>
        <linearGradient id="gradient" x1="0%" y1="0%" x2="0%" y2="100%">
            <stop offset="0%" style="stop-color:#6BA22F;stop-opacity:1" />
            <stop offset="95%" style="stop-color:#59832B;stop-opacity:1" />
        </linearGradient>
    </defs>
    <g fill="url(#gradient)">
        <g id="Слой_1-2" data-name="Слой 1">
            <g class="cls-2">
                <path d="M47,.24a.77.77,0,0,0-1.12,0l-3,3H24.24L.83,26.81a2.81,2.81,0,0,0,0,4L17.2,47.17a2.77,2.77,0,0,0,2,.83,2.81,2.81,0,0,0,2-.83L44,23.75V4.33l3-3A.79.79,0,0,0,47,.24ZM42.4,23.1,20.06,46.05a1.24,1.24,0,0,1-1.73,0L2,29.67a1.2,1.2,0,0,1-.36-.86A1.23,1.23,0,0,1,2,27.94l23-23.14H41.27L37.4,8.67A3.94,3.94,0,0,0,35.2,8a4,4,0,1,0,3.34,1.8L42.4,5.93ZM37.6,12a2.42,2.42,0,1,1-1.37-2.16l-1.59,1.6a.79.79,0,0,0,0,1.13.76.76,0,0,0,.56.23.78.78,0,0,0,.57-.23L37.36,11a2.32,2.32,0,0,1,.24,1Z"
                      transform="translate(0 0)"/>
            </g>
            <path d="M31.93,16.91a.8.8,0,0,0,0-1.13.79.79,0,0,0-1.13,0l-.6.59a7.22,7.22,0,0,0-5.1-1.55,4.7,4.7,0,0,0-3.28,1.76,5,5,0,0,0-1.08,3.78l.61,4.87-7.16,7.16a5.61,5.61,0,0,1,.52-7.31A.8.8,0,0,0,13.58,24a7.19,7.19,0,0,0-.53,9.58l-.92.91a.81.81,0,0,0,.57,1.37.81.81,0,0,0,.57-.24l.91-.91a7.16,7.16,0,0,0,4.49,1.58l.6,0a4.73,4.73,0,0,0,3.29-1.75,5,5,0,0,0,1.08-3.78L23,25.81l7.16-7.16A5.61,5.61,0,0,1,29.67,26a.79.79,0,0,0,0,1.13.8.8,0,0,0,1.13,0,7.2,7.2,0,0,0,.53-9.58Zm-9.88,14a3.4,3.4,0,0,1-.73,2.57,3.11,3.11,0,0,1-2.18,1.17,5.64,5.64,0,0,1-3.82-1.1l6.28-6.28Zm.27-10.72a3.48,3.48,0,0,1,.74-2.58,3.16,3.16,0,0,1,2.18-1.16,5.57,5.57,0,0,1,3.82,1.1L22.78,23.8Z"
                  transform="translate(0 0)"/>
        </g>
    </g>
</svg>