<svg xmlns="http://www.w3.org/2000/svg" viewBox="0 0 309.63 279.02">
    <defs>
        <linearGradient id="gradient" x1="0%" y1="0%" x2="0%" y2="100%">
            <stop offset="0%" style="stop-color:#6BA22F;stop-opacity:1" />
            <stop offset="95%" style="stop-color:#59832B;stop-opacity:1" />
        </linearGradient>
    </defs>
    <g fill="url(#gradient)">
        <g id="Слой_1-2" data-name="Слой 1">
            <path d="M102.54,171.23a12.3,12.3,0,1,1-12.29-12.3,12.29,12.29,0,0,1,12.29,12.3Z"/>
            <path d="M231.68,171.23a12.3,12.3,0,1,1-12.3-12.3,12.3,12.3,0,0,1,12.3,12.3Z"/>
            <path d="M309.63,166a36.31,36.31,0,0,0-29.86-35.68V125a125,125,0,1,0-249.91,0v5.37a36.25,36.25,0,0,0,.44,71.44c2.41,27.53,15,47.87,37.55,60.52,20.05,11.26,48.49,16.73,87,16.73s66.91-5.47,87-16.73c22.54-12.65,35.14-33,37.56-60.52A36.31,36.31,0,0,0,309.63,166ZM12.8,166a23.5,23.5,0,0,1,17.06-22.56v45.12A23.49,23.49,0,0,1,12.8,166ZM267,191.7c0,28.11-10.29,47.55-31.45,59.43-18.09,10.16-44.49,15.09-80.7,15.09s-62.62-4.93-80.7-15.09C53,239.25,42.66,219.81,42.66,191.7V125A112.37,112.37,0,0,1,122.59,17.52c35.19.45,53.93,25.85,53.93,44.24A25.58,25.58,0,0,1,151,87.31a19.18,19.18,0,0,1-19.16-19.16,14.06,14.06,0,0,1,14.05-14,6.41,6.41,0,0,0,0-12.81A26.88,26.88,0,0,0,119,68.15a32,32,0,0,0,32,32,38.39,38.39,0,0,0,38.35-38.35c0-13.28-6.68-27.57-17.86-38.23a64.84,64.84,0,0,0-15.11-10.71A112.28,112.28,0,0,1,267,125Zm12.8-3.12V143.45a23.45,23.45,0,0,1,0,45.13Z"/>
            <path d="M179.57,188.86a35.07,35.07,0,0,1-49.51,0,6.4,6.4,0,1,0-9,9,47.86,47.86,0,0,0,67.61,0,6.4,6.4,0,1,0-9.05-9Z"/>
        </g>
    </g>
</svg>