<svg xmlns="http://www.w3.org/2000/svg" viewBox="0 0 48 44">
    <defs>
        <linearGradient id="gradient" x1="0%" y1="0%" x2="0%" y2="100%">
            <stop offset="0%" style="stop-color:#6BA22F;stop-opacity:1" />
            <stop offset="95%" style="stop-color:#59832B;stop-opacity:1" />
        </linearGradient>
    </defs>
    <g fill="url(#gradient)">
        <g id="Слой_1-2" data-name="Слой 1">
            <path d="M41.13,16.8,28,3.63a4,4,0,0,0-7.92,0L6.87,16.8H0V44H48V16.8ZM24,1.6A2.4,2.4,0,1,1,21.6,4,2.41,2.41,0,0,1,24,1.6Zm-3.66,4a4,4,0,0,0,7.32,0L38.87,16.8H9.13ZM46.4,42.4H1.6v-24H46.4Z"/>
            <path d="M9.6,21.6a4,4,0,0,0-4,4v9.6a4,4,0,0,0,8,0V25.6a4,4,0,0,0-4-4ZM12,35.2a2.4,2.4,0,0,1-4.8,0V25.6a2.4,2.4,0,1,1,4.8,0Z"/>
            <path d="M19.2,21.6a4,4,0,0,0-4,4V38.4a.8.8,0,1,0,1.6,0V32.78a4,4,0,0,0,2.4.82,4,4,0,0,0,4-4v-4a4,4,0,0,0-4-4Zm2.4,8a2.4,2.4,0,0,1-4.8,0v-4a2.4,2.4,0,1,1,4.8,0Z"/>
            <path d="M40.8,34.25,35.94,22.1h0a1.22,1.22,0,0,0-.12-.19l0-.07s-.05,0-.08-.05a.59.59,0,0,0-.18-.13h0a1,1,0,0,0-.25,0h0a.7.7,0,0,0-.14,0,.9.9,0,0,0-.16,0h0a.64.64,0,0,0-.19.13l-.07,0a.61.61,0,0,0-.07.1.91.91,0,0,0-.11.16.13.13,0,0,1,0,.06,1,1,0,0,0-.05.25h0v16a.8.8,0,0,0,1.6,0V26.56L40.85,38.7h0l0,0a.59.59,0,0,0,.13.19s0,0,.06.06a.91.91,0,0,0,.16.11l.08,0a.87.87,0,0,0,.28.05.72.72,0,0,0,.29-.06h0a1.22,1.22,0,0,0,.19-.12l.07-.05.07-.09a1.63,1.63,0,0,0,.11-.17.15.15,0,0,1,0-.06,1,1,0,0,0,0-.24h0v-16a.8.8,0,1,0-1.6,0V34.25Z"/>
            <path d="M32,23.2a.8.8,0,0,0,0-1.6H25.6a.8.8,0,0,0-.8.8v16a.8.8,0,0,0,.8.8H32a.8.8,0,1,0,0-1.6H26.4V31.2H32a.8.8,0,0,0,0-1.6H26.4V23.2Z"/>
        </g>
    </g>
</svg>