<svg xmlns="http://www.w3.org/2000/svg" viewBox="0 0 48 47.53">
    <defs>
        <linearGradient id="gradient" x1="0%" y1="0%" x2="0%" y2="100%">
            <stop offset="0%" style="stop-color:#6BA22F;stop-opacity:1" />
            <stop offset="95%" style="stop-color:#59832B;stop-opacity:1" />
        </linearGradient>
    </defs>
    <g fill="url(#gradient)">
        <g id="Слой_1-2" data-name="Слой 1">
            <path d="M48,3.2A3.2,3.2,0,0,0,44.8,0H3.2a3.2,3.2,0,0,0-.8,6.29V45.13l2.4-2.4,4.8,4.8,4.8-4.8,4.8,4.8,4.8-4.8,4.8,4.8,4.8-4.8,4.8,4.8,4.8-4.8,2.4,2.4V6.29A3.2,3.2,0,0,0,48,3.2ZM44,41.27l-.8-.8-4.8,4.8-4.8-4.8-4.8,4.8L24,40.47l-4.8,4.8-4.8-4.8-4.8,4.8-4.8-4.8-.8.8V4H44ZM45.6,4.59V2.4H2.4V4.59a1.6,1.6,0,0,1,.8-3H44.8a1.6,1.6,0,0,1,.8,3Z"/>
            <path d="M35.2,32h-12a.8.8,0,0,0,0,1.6h12a.8.8,0,0,0,0-1.6Z"/>
            <path d="M38.63,32.23a.84.84,0,0,0-.23.57.88.88,0,0,0,.23.57.82.82,0,0,0,1.14,0A.88.88,0,0,0,40,32.8a.84.84,0,0,0-.23-.57.86.86,0,0,0-1.14,0Z"/>
            <path d="M39.2,20.8h-12a.8.8,0,1,0,0,1.6h12a.8.8,0,1,0,0-1.6Z"/>
            <path d="M39.2,26.4h-8a.8.8,0,0,0,0,1.6h8a.8.8,0,0,0,0-1.6Z"/>
            <path d="M22.4,27.2a.8.8,0,0,0,.8.8h1.6a.8.8,0,0,0,0-1.6H23.2a.8.8,0,0,0-.8.8Z"/>
            <path d="M36,16a.8.8,0,0,0-.8-.8h-12a.8.8,0,1,0,0,1.6h12A.8.8,0,0,0,36,16Z"/>
            <path d="M38.63,15.43a.84.84,0,0,0-.23.57.88.88,0,0,0,.23.57.82.82,0,0,0,1.14,0A.88.88,0,0,0,40,16a.8.8,0,0,0-1.37-.57Z"/>
            <path d="M24.57,22.17a.86.86,0,0,0,.23-.57.8.8,0,1,0-1.6,0,.86.86,0,0,0,.23.57.82.82,0,0,0,1.14,0Z"/>
            <path d="M28.57,27.77a.86.86,0,0,0,.23-.57.84.84,0,0,0-.23-.57.81.81,0,0,0-1.14,1.14.82.82,0,0,0,1.14,0Z"/>
            <path d="M13.6,16.88V16A.8.8,0,0,0,12,16v.88a4,4,0,0,0-2.25,1.34,2.74,2.74,0,0,0-.64,2.08,2.88,2.88,0,0,0,1.11,2L12,23.68V28a2.39,2.39,0,0,1-1.6-2.25.8.8,0,1,0-1.6,0A4,4,0,0,0,12,29.7v.7a.8.8,0,0,0,1.6,0v-.7a4.06,4.06,0,0,0,2.25-1.34,2.76,2.76,0,0,0,.64-2.09,2.9,2.9,0,0,0-1.11-2L13.6,22.9V18.55a2.39,2.39,0,0,1,1.6,2.25.8.8,0,1,0,1.6,0,4,4,0,0,0-3.2-3.92Zm.8,8.67a1.3,1.3,0,0,1,.5.89,1.17,1.17,0,0,1-.27.89,2.34,2.34,0,0,1-1,.7v-3.1ZM11.2,21a1.35,1.35,0,0,1-.5-.9,1.2,1.2,0,0,1,.26-.88,2.43,2.43,0,0,1,1-.7v3.1Z"/>
            <path d="M32.8,8.8A.8.8,0,1,1,32,8a.8.8,0,0,1,.8.8Z"/>
            <path d="M29.6,8.8a.8.8,0,1,1-.8-.8.8.8,0,0,1,.8.8Z"/>
            <path d="M36,8.8a.8.8,0,1,1-.8-.8.8.8,0,0,1,.8.8Z"/>
            <path d="M26.4,8.8a.8.8,0,1,1-.8-.8.8.8,0,0,1,.8.8Z"/>
            <path d="M39.2,8.8a.8.8,0,1,1-.8-.8.8.8,0,0,1,.8.8Z"/>
            <path d="M16.8,8.8A.8.8,0,1,1,16,8a.8.8,0,0,1,.8.8Z"/>
            <path d="M20,8.8a.8.8,0,1,1-.8-.8.8.8,0,0,1,.8.8Z"/>
            <path d="M23.2,8.8a.8.8,0,1,1-.8-.8.8.8,0,0,1,.8.8Z"/>
            <path d="M42.4,8.8a.8.8,0,1,1-.8-.8.8.8,0,0,1,.8.8Z"/>
            <path d="M13.6,8.8a.8.8,0,1,1-.8-.8.8.8,0,0,1,.8.8Z"/>
            <path d="M10.4,8.8A.8.8,0,1,1,9.6,8a.8.8,0,0,1,.8.8Z"/>
            <path d="M7.2,8.8A.8.8,0,1,1,6.4,8a.8.8,0,0,1,.8.8Z"/>
        </g>
    </g>
</svg>