<svg xmlns="http://www.w3.org/2000/svg" xmlns:xlink="http://www.w3.org/1999/xlink" viewBox="0 0 48 46.4">
    <defs>
        <style>.cls-1{fill:none;}.cls-2{clip-path:url(#clip-path);}</style>
        <clipPath id="clip-path" transform="translate(0 -0.4)">
            <rect class="cls-1" width="48" height="47.76"/>
        </clipPath>
        <linearGradient id="gradient" x1="0%" y1="0%" x2="100%" y2="0%">
            <stop offset="0%" style="stop-color:#6BA22F;stop-opacity:1" />
            <stop offset="95%" style="stop-color:#59832B;stop-opacity:1" />
        </linearGradient>
    </defs>
    <title>Ресурс 1</title>
    <g id="Слой_2" data-name="Слой 2">
        <g id="Слой_1-2" data-name="Слой 1" fill="url(#gradient)">
            <g class="cls-2">
                <path d="M47.57,28.39c-1.41-2-2.83-2-6.39-.12l-6.9,4.22c-1,.55-3.12.71-5.15.75a2.66,2.66,0,0,0-.49-2.68,6.59,6.59,0,0,0-2.49-2.2A7.12,7.12,0,0,0,28.8,22.8a7.2,7.2,0,1,0-14.4,0,7.13,7.13,0,0,0,.82,3.33l0,0c-2.87-2.16-7.67-2.47-9.59-2.5V21.18H0V46.8H5.6V44.4H16A33.33,33.33,0,0,0,20.89,44l10.37-1.57a6.37,6.37,0,0,0,1.1-.13A4.85,4.85,0,0,0,35,41l12.13-9.45h0a2.35,2.35,0,0,0,.42-3.16Zm-29-.91a5.6,5.6,0,1,1,5.75.23l-.3,0-.3-.05c-.26,0-.52,0-.79,0H19.77a7.67,7.67,0,0,1-1.24-.1ZM4,45.2H1.6V22.78H4ZM46.14,30.31,34,39.77l-.06,0a3.45,3.45,0,0,1-1.87.94,4.26,4.26,0,0,1-.86.09l-10.55,1.6A31.44,31.44,0,0,1,16,42.8H5.6V25.2c1.77,0,6.17.32,8.63,2.18A8.93,8.93,0,0,0,17.94,29h0l.14,0h0c.26,0,.53.08.8.11h0a7.5,7.5,0,0,0,.82,0h3.12a5.79,5.79,0,0,1,1.31.15l.05,0a5.13,5.13,0,0,1,3.06,2.11c.34.5.47.91.36,1.11-.21.37-1.21.6-2.21.64H16.8c-2.5,0-4,1.2-4,3.2a.8.8,0,1,0,1.6,0c0-.39,0-1.6,2.4-1.6h7.75a9.33,9.33,0,0,0,1,0H26c3.75.07,7.28,0,9.13-.94L42,29.67c3.3-1.74,3.63-1.27,4.3-.35a.74.74,0,0,1-.13,1Z"
                      transform="translate(0 -0.4)"/>
            </g>
            <path d="M25.6,22.8a4,4,0,1,0-4,4,4,4,0,0,0,4-4Zm-4,2.4A2.4,2.4,0,1,1,24,22.8a2.41,2.41,0,0,1-2.4,2.4Z"
                  transform="translate(0 -0.4)"/>
            <path d="M33.6,14.8a7.2,7.2,0,1,0-7.2-7.2,7.21,7.21,0,0,0,7.2,7.2ZM33.6,2A5.6,5.6,0,1,1,28,7.6,5.6,5.6,0,0,1,33.6,2Z"
                  transform="translate(0 -0.4)"/>
            <path d="M33.6,11.6a4,4,0,1,0-4-4,4,4,0,0,0,4,4Zm0-6.4a2.4,2.4,0,1,1-2.4,2.4,2.41,2.41,0,0,1,2.4-2.4Z"
                  transform="translate(0 -0.4)"/>
        </g>
    </g>
</svg>