<svg xmlns="http://www.w3.org/2000/svg" viewBox="0 0 409.6 409.6">
    <defs>
        <linearGradient id="gradient" x1="0%" y1="0%" x2="100%" y2="0%">
            <stop offset="0%" style="stop-color:#6BA22F;stop-opacity:1" />
            <stop offset="95%" style="stop-color:#59832B;stop-opacity:1" />
        </linearGradient>
    </defs>
    <g fill="url(#gradient)">
        <g id="Слой_1-2" data-name="Слой 1">
            <path d="M75.09,286.72H47.78A6.82,6.82,0,0,0,41,293.55v41a6.82,6.82,0,0,0,6.82,6.82H75.09a6.82,6.82,0,0,0,6.83-6.82v-41a6.83,6.83,0,0,0-6.83-6.83Zm-6.82,41H54.61v-27.3H68.27Z"/>
            <path d="M150.19,252.59V225.28a20.48,20.48,0,1,0-41,0v27.31a6.82,6.82,0,0,0,6.82,6.82h27.31a6.82,6.82,0,0,0,6.83-6.82Zm-13.66-6.83H122.88V225.28a6.83,6.83,0,1,1,13.65,0v20.48Z"/>
            <path d="M266.24,286.72H143.36a6.83,6.83,0,1,0,0,13.65h6.83v61.44a6.83,6.83,0,1,0,13.65,0V300.37H198v27.31a6.83,6.83,0,1,0,0,13.65v20.48a6.83,6.83,0,1,0,13.66,0V341.33a6.83,6.83,0,0,0,0-13.65v-27.3h34.13v61.43a6.83,6.83,0,1,0,13.65,0V300.38h6.83a6.83,6.83,0,0,0,0-13.66Z"/>
            <path d="M129.71,150.19a6.82,6.82,0,0,0,6.82-6.83c0-29.16,19.28-51.75,48-59-10,11.89-20.68,31.09-20.68,59a6.83,6.83,0,1,0,13.65,0c0-34.69,19.15-53.46,27.28-59.88,8.06,6.41,27.33,25.32,27.33,59.88a6.83,6.83,0,1,0,13.66,0c0-27.88-10.71-47.08-20.68-59,28.71,7.22,48,29.81,48,59a6.83,6.83,0,1,0,13.65,0c0-40.69-31.84-71.81-75.09-74.8V13.65h41V27.31H232.1a6.83,6.83,0,0,0,0,13.65h27.31a6.83,6.83,0,0,0,6.83-6.83V6.83A6.83,6.83,0,0,0,259.41,0H204.8A6.83,6.83,0,0,0,198,6.83V68.56c-43.25,3-75.09,34.11-75.09,74.8a6.83,6.83,0,0,0,6.83,6.83Z"/>
            <path d="M266.24,382.29H143.36a6.83,6.83,0,0,0-6.83,6.83v13.65a6.83,6.83,0,1,0,13.66,0V396H259.41v6.82a6.83,6.83,0,1,0,13.66,0V389.12a6.83,6.83,0,0,0-6.83-6.83Z"/>
            <path d="M293.55,259.41a6.82,6.82,0,0,0,6.82-6.82V225.28a20.48,20.48,0,0,0-41,0v27.31a6.82,6.82,0,0,0,6.83,6.82Zm-20.48-34.13a6.83,6.83,0,1,1,13.65,0v20.48H273.07Z"/>
            <path d="M334.51,259.41h27.3a6.82,6.82,0,0,0,6.83-6.82V225.28a20.48,20.48,0,1,0-41,0v27.31a6.82,6.82,0,0,0,6.83,6.82Zm6.82-34.13a6.83,6.83,0,1,1,13.66,0v20.48H341.33Z"/>
            <path d="M402.77,150.19a6.83,6.83,0,0,0-6.83,6.82v6.83H13.65V157A6.83,6.83,0,0,0,0,157V402.77a6.83,6.83,0,0,0,6.83,6.83H116.05a6.83,6.83,0,0,0,6.83-6.83v-27.3a13.68,13.68,0,0,0-13.65-13.66,13.53,13.53,0,0,0-6.83,1.84,14.2,14.2,0,0,0-13.65,0,14.22,14.22,0,0,0-13.66,0,14.2,14.2,0,0,0-13.65,0,14.22,14.22,0,0,0-13.66,0,14.2,14.2,0,0,0-13.65,0,14.2,14.2,0,0,0-13.65,0,13.53,13.53,0,0,0-6.83-1.84V177.49H395.94V361.81a13.49,13.49,0,0,0-6.82,1.84,14.22,14.22,0,0,0-13.66,0,14.2,14.2,0,0,0-13.65,0,14.2,14.2,0,0,0-13.65,0,14.22,14.22,0,0,0-13.66,0,14.2,14.2,0,0,0-13.65,0,14.22,14.22,0,0,0-13.66,0,13.46,13.46,0,0,0-6.82-1.84,13.67,13.67,0,0,0-13.65,13.66v27.3a6.82,6.82,0,0,0,6.82,6.83H402.77a6.83,6.83,0,0,0,6.83-6.83V157a6.82,6.82,0,0,0-6.83-6.82ZM20.48,382.29a6.82,6.82,0,0,0,6.82-6.82,6.83,6.83,0,0,0,13.66,0,6.83,6.83,0,0,0,13.65,0,6.83,6.83,0,0,0,13.66,0,6.83,6.83,0,0,0,13.65,0,6.83,6.83,0,0,0,13.65,0,6.83,6.83,0,0,0,13.65,0V396H13.65V375.47a6.82,6.82,0,0,0,6.83,6.82ZM395.94,396H300.38V375.47a6.83,6.83,0,0,0,13.65,0,6.83,6.83,0,0,0,13.65,0,6.83,6.83,0,0,0,13.65,0,6.83,6.83,0,0,0,13.65,0,6.83,6.83,0,0,0,13.66,0,6.83,6.83,0,0,0,13.65,0,6.83,6.83,0,0,0,13.65,0V396Z"/>
            <path d="M327.68,334.51a6.82,6.82,0,0,0,6.83,6.82h27.3a6.82,6.82,0,0,0,6.83-6.82v-41a6.83,6.83,0,0,0-6.83-6.83h-27.3a6.83,6.83,0,0,0-6.83,6.83Zm13.65-34.13H355v27.3H341.33Z"/>
            <path d="M218.45,259.41a6.82,6.82,0,0,0,6.83-6.82V225.28a20.48,20.48,0,1,0-41,0v27.31a6.82,6.82,0,0,0,6.82,6.82ZM198,225.28a6.83,6.83,0,1,1,13.66,0v20.48H198Z"/>
            <path d="M81.92,225.28a20.48,20.48,0,0,0-41,0v27.31a6.82,6.82,0,0,0,6.82,6.82H75.09a6.82,6.82,0,0,0,6.83-6.82V225.28ZM68.27,245.76H54.61V225.28a6.83,6.83,0,0,1,13.66,0Z"/>
        </g>
    </g>
</svg>