<svg xmlns="http://www.w3.org/2000/svg" viewBox="0 0 48 48">
    <defs>
        <linearGradient id="gradient" x1="0%" y1="0%" x2="100%" y2="0%">
            <stop offset="0%" style="stop-color:#6BA22F;stop-opacity:1" />
            <stop offset="95%" style="stop-color:#59832B;stop-opacity:1" />
        </linearGradient>
    </defs>
    <g fill="url(#gradient)">
        <g id="Слой_1-2" data-name="Слой 1">
            <path d="M47.2,44.8H3.2V.8A.8.8,0,0,0,1.6.8v44H.8a.8.8,0,1,0,0,1.6h.8v.8a.8.8,0,0,0,1.6,0v-.8h44a.8.8,0,1,0,0-1.6Z"/>
            <path d="M5.6,23.2H7.2a.8.8,0,0,0,0-1.6H5.6a.8.8,0,1,0,0,1.6Z"/>
            <path d="M5.6,20H7.2a.8.8,0,0,0,0-1.6H5.6a.8.8,0,0,0,0,1.6Z"/>
            <path d="M5.6,16.8H7.2a.8.8,0,0,0,0-1.6H5.6a.8.8,0,0,0,0,1.6Z"/>
            <path d="M5.6,13.6H7.2a.8.8,0,0,0,0-1.6H5.6a.8.8,0,0,0,0,1.6Z"/>
            <path d="M5.6,10.4H7.2a.8.8,0,0,0,0-1.6H5.6a.8.8,0,0,0,0,1.6Z"/>
            <path d="M5.6,7.2H7.2a.8.8,0,1,0,0-1.6H5.6a.8.8,0,0,0,0,1.6Z"/>
            <path d="M5.6,4H7.2a.8.8,0,0,0,0-1.6H5.6A.8.8,0,1,0,5.6,4Z"/>
            <path d="M8.81,39.19a4.79,4.79,0,0,0,3.55-8l2.82-2.82a4.77,4.77,0,0,0,6.44,0L25.25,32a4.79,4.79,0,1,0,7.77.93l7-7a4.74,4.74,0,1,0-1-1.26l-7,7A4.79,4.79,0,0,0,26.51,31l-3.89-3.89a4.8,4.8,0,1,0-8.44,0L11.1,30.17a4.8,4.8,0,1,0-2.29,9Zm34.39-20A3.2,3.2,0,1,1,40,22.4a3.21,3.21,0,0,1,3.2-3.2ZM32,35.2A3.2,3.2,0,1,1,28.8,32,3.2,3.2,0,0,1,32,35.2ZM18.4,21.6a3.2,3.2,0,1,1-3.2,3.2,3.21,3.21,0,0,1,3.2-3.2ZM8.81,31.19a3.2,3.2,0,1,1-3.2,3.2,3.21,3.21,0,0,1,3.2-3.2Z"/>
        </g>
    </g>
</svg>